<svg width="25" height="25" viewBox="0 0 25 25" fill="none" xmlns="http://www.w3.org/2000/svg">
<path d="M18.852 4.3418C18.0713 4.3418 17.4531 4.95992 17.4531 5.74071C17.4531 6.52149 18.0713 7.13962 18.852 7.13962C19.6328 7.13962 20.2509 6.52149 20.2509 5.74071C20.2509 4.99245 19.6328 4.3418 18.852 4.3418Z" fill="#E6E6E6"/>
<path d="M12.6055 6.16406C9.35225 6.16406 6.68457 8.79922 6.68457 12.085C6.68457 15.3383 9.31972 18.006 12.6055 18.006C15.8588 18.006 18.5265 15.3708 18.5265 12.085C18.494 8.79922 15.8588 6.16406 12.6055 6.16406ZM12.6055 15.8588C10.5234 15.8588 8.83173 14.1671 8.83173 12.085C8.83173 10.0029 10.5234 8.31123 12.6055 8.31123C14.6876 8.31123 16.3793 10.0029 16.3793 12.085C16.3793 14.1671 14.6876 15.8588 12.6055 15.8588Z" fill="#E6E6E6"/>
<path d="M17.2908 24.0561H7.72618C3.75718 24.0561 0.503906 20.8353 0.503906 16.8338V7.26916C0.503906 3.30016 3.72465 0.046875 7.72618 0.046875H17.2908C21.2598 0.046875 24.5131 3.26762 24.5131 7.26916V16.8338C24.4806 20.8353 21.2598 24.0561 17.2908 24.0561ZM7.69365 2.32417C4.96089 2.32417 2.74867 4.5364 2.74867 7.26916V16.8338C2.74867 19.5666 4.96089 21.7788 7.69365 21.7788H17.2583C19.9911 21.7788 22.2033 19.5666 22.2033 16.8338V7.26916C22.2033 4.5364 19.9911 2.32417 17.2583 2.32417H7.69365Z" fill="#E6E6E6"/>
</svg>
