<svg width="20" height="25" viewBox="0 0 20 25" fill="none" xmlns="http://www.w3.org/2000/svg">
<path fill-rule="evenodd" clip-rule="evenodd" d="M8.28021 15.727C8.24768 15.792 8.24767 15.8571 8.21514 15.9221C7.33675 19.3706 7.23916 20.1514 6.32824 21.7455C5.90531 22.4938 5.41732 23.242 4.86426 23.9252C4.7992 23.9903 4.73413 24.1204 4.63653 24.0879C4.5064 24.0553 4.5064 23.9252 4.47387 23.8276C4.34374 22.7866 4.24615 21.713 4.27868 20.6719C4.31121 19.3056 4.5064 18.8176 6.26317 11.335C6.2957 11.2049 6.26318 11.1398 6.23065 11.0097C5.80772 9.87105 5.71011 8.69987 6.10051 7.52868C6.91383 4.99113 9.80926 4.79593 10.2972 6.87803C10.6226 8.17934 9.77672 9.87105 9.1586 12.4086C8.63807 14.4907 11.078 15.9547 13.1601 14.4582C15.0796 13.0593 15.8278 9.70838 15.6977 7.33349C15.4049 2.5837 10.2322 1.57518 6.91383 3.10422C3.14002 4.86099 2.26164 9.54572 3.98588 11.6604C4.2136 11.9206 4.37627 12.0833 4.3112 12.3761C4.2136 12.799 4.11601 13.2219 3.98588 13.6774C3.88828 14.0027 3.62802 14.1003 3.30269 13.9702C2.68457 13.7099 2.16404 13.3195 1.74111 12.799C0.277137 11.0097 -0.113253 7.46362 1.80618 4.43807C3.92082 1.11972 7.88981 -0.246657 11.4684 0.176269C15.7628 0.664262 18.4955 3.59221 19.016 6.94309C19.2438 8.47214 19.0811 12.2134 16.9339 14.8486C14.494 17.9067 10.4924 18.1018 8.67061 16.2149C8.54048 16.0523 8.41034 15.8896 8.28021 15.727Z" fill="#E6E6E6"/>
</svg>
