<svg width="30" height="24" viewBox="0 0 30 24" fill="none" xmlns="http://www.w3.org/2000/svg">
<path d="M29.586 2.94209C28.6751 3.36502 27.634 3.62528 26.6255 3.78794C27.1135 3.72288 27.7967 2.84449 28.0895 2.48663C28.5124 1.96611 28.8703 1.34798 29.0655 0.697327C29.098 0.632261 29.098 0.567196 29.0655 0.534663C29.0004 0.50213 28.9679 0.534663 28.9028 0.534663C27.7967 1.12025 26.6255 1.57571 25.4218 1.86851C25.3242 1.90104 25.2591 1.86851 25.1941 1.80344C25.0965 1.67331 24.9989 1.57571 24.9013 1.47811C24.3808 1.05519 23.8277 0.697327 23.2096 0.437065C22.3963 0.111737 21.4853 -0.0509272 20.607 0.0141384C19.7611 0.079204 18.9152 0.306933 18.1345 0.697327C17.3862 1.08772 16.703 1.64078 16.15 2.32397C15.5969 3.00716 15.174 3.82048 14.9788 4.69886C14.7836 5.54472 14.7836 6.35804 14.9137 7.20389C14.9462 7.33402 14.9137 7.36655 14.7836 7.33402C9.96873 6.6183 5.99972 4.89406 2.77897 1.21785C2.64884 1.05519 2.55124 1.05519 2.45364 1.21785C1.05473 3.33249 1.73793 6.74843 3.4947 8.4076C3.72243 8.63533 3.98269 8.86306 4.24295 9.05826C4.14535 9.09079 2.97417 8.96066 1.93312 8.4076C1.80299 8.31 1.73793 8.37507 1.70539 8.53773C1.70539 8.76546 1.70539 8.99319 1.73792 9.22092C1.99818 11.3681 3.49469 13.3526 5.54426 14.1334C5.77199 14.231 6.06479 14.3286 6.32505 14.3611C5.86959 14.4587 5.3816 14.5238 4.04775 14.4262C3.88509 14.3936 3.82002 14.4912 3.88509 14.6214C4.89361 17.3541 7.04077 18.1674 8.66741 18.6229C8.89514 18.6554 9.09034 18.6554 9.31807 18.7205C9.31807 18.753 9.28553 18.753 9.28553 18.753C8.76501 19.5664 6.87811 20.1845 6.03225 20.4773C4.47068 21.0303 2.74644 21.2906 1.08727 21.0954C0.827003 21.0629 0.761939 21.0629 0.696873 21.0954C0.631808 21.1279 0.696872 21.193 0.761938 21.2581C1.08727 21.4858 1.44513 21.681 1.80299 21.8762C2.84404 22.4292 3.95016 22.8847 5.12134 23.21C11.0748 24.8692 17.7766 23.633 22.2336 19.2085C25.7471 15.7275 26.9834 10.9126 26.9834 6.09777C26.9834 5.90258 27.2111 5.80498 27.3412 5.70738C28.2522 5.02419 29.0004 4.21087 29.6836 3.29995C29.8463 3.10475 29.8463 2.90956 29.8463 2.84449V2.81196C29.6836 2.87703 29.6836 2.87703 29.586 2.94209Z" fill="#E6E6E6"/>
</svg>
