<svg width="130" height="40" viewBox="0 0 130 40" fill="none" xmlns="http://www.w3.org/2000/svg">
<rect width="130" height="40" rx="5" fill="#B5A96D"/>
<path d="M45.879 19.1293H44.3279C44.2682 18.7978 44.1572 18.5062 43.9948 18.2543C43.8324 18.0024 43.6335 17.7886 43.3982 17.6129C43.1628 17.4373 42.8994 17.3047 42.6077 17.2152C42.3193 17.1257 42.0128 17.081 41.6879 17.081C41.1013 17.081 40.576 17.2285 40.1119 17.5234C39.6512 17.8184 39.2867 18.2509 39.0182 18.821C38.753 19.3911 38.6205 20.0871 38.6205 20.9091C38.6205 21.7377 38.753 22.437 39.0182 23.0071C39.2867 23.5772 39.6529 24.008 40.1169 24.2997C40.5809 24.5914 41.103 24.7372 41.683 24.7372C42.0045 24.7372 42.3094 24.6941 42.5977 24.608C42.8894 24.5185 43.1529 24.3875 43.3882 24.2152C43.6235 24.0429 43.8224 23.8324 43.9848 23.5838C44.1505 23.3319 44.2649 23.0436 44.3279 22.7188L45.879 22.7237C45.7961 23.2242 45.6354 23.6849 45.3968 24.1058C45.1614 24.5234 44.8582 24.8847 44.4869 25.1896C44.1191 25.4912 43.6981 25.7249 43.2242 25.8906C42.7502 26.0563 42.2332 26.1392 41.673 26.1392C40.7914 26.1392 40.0059 25.9304 39.3165 25.5128C38.6271 25.0919 38.0835 24.4903 37.6858 23.7081C37.2914 22.9259 37.0942 21.9929 37.0942 20.9091C37.0942 19.822 37.2931 18.889 37.6908 18.1101C38.0885 17.3279 38.6321 16.728 39.3215 16.3104C40.0109 15.8894 40.7947 15.679 41.673 15.679C42.2133 15.679 42.7171 15.7569 43.1844 15.9126C43.655 16.0651 44.0776 16.2905 44.4521 16.5888C44.8267 16.8838 45.1366 17.245 45.3818 17.6726C45.6271 18.0968 45.7928 18.5824 45.879 19.1293ZM50.8145 26.1541C50.0986 26.1541 49.4739 25.9901 48.9403 25.6619C48.4066 25.3338 47.9923 24.8748 47.6974 24.2848C47.4024 23.6948 47.2549 23.0054 47.2549 22.2166C47.2549 21.4245 47.4024 20.7318 47.6974 20.1385C47.9923 19.5452 48.4066 19.0845 48.9403 18.7564C49.4739 18.4283 50.0986 18.2642 50.8145 18.2642C51.5305 18.2642 52.1552 18.4283 52.6888 18.7564C53.2224 19.0845 53.6367 19.5452 53.9317 20.1385C54.2267 20.7318 54.3742 21.4245 54.3742 22.2166C54.3742 23.0054 54.2267 23.6948 53.9317 24.2848C53.6367 24.8748 53.2224 25.3338 52.6888 25.6619C52.1552 25.9901 51.5305 26.1541 50.8145 26.1541ZM50.8195 24.9062C51.2835 24.9062 51.668 24.7836 51.9729 24.5384C52.2778 24.2931 52.5032 23.9666 52.6491 23.5589C52.7982 23.1513 52.8728 22.7022 52.8728 22.2116C52.8728 21.7244 52.7982 21.277 52.6491 20.8693C52.5032 20.4583 52.2778 20.1286 51.9729 19.88C51.668 19.6314 51.2835 19.5071 50.8195 19.5071C50.3522 19.5071 49.9644 19.6314 49.6562 19.88C49.3512 20.1286 49.1242 20.4583 48.9751 20.8693C48.8292 21.277 48.7563 21.7244 48.7563 22.2116C48.7563 22.7022 48.8292 23.1513 48.9751 23.5589C49.1242 23.9666 49.3512 24.2931 49.6562 24.5384C49.9644 24.7836 50.3522 24.9062 50.8195 24.9062ZM56.0335 26V18.3636H57.4603V19.6065H57.5548C57.7139 19.1856 57.974 18.8575 58.3353 18.6222C58.6966 18.3835 59.1291 18.2642 59.6329 18.2642C60.1433 18.2642 60.5709 18.3835 60.9156 18.6222C61.2636 18.8608 61.5204 19.1889 61.6862 19.6065H61.7657C61.948 19.1989 62.238 18.8741 62.6357 18.6321C63.0335 18.3868 63.5074 18.2642 64.0576 18.2642C64.7503 18.2642 65.3154 18.4813 65.7529 18.9155C66.1937 19.3497 66.4142 20.0043 66.4142 20.8793V26H64.9276V21.0185C64.9276 20.5014 64.7868 20.1269 64.5051 19.8949C64.2233 19.6629 63.8869 19.5469 63.4958 19.5469C63.0119 19.5469 62.6357 19.696 62.3673 19.9943C62.0988 20.2893 61.9646 20.6688 61.9646 21.1328V26H60.483V20.924C60.483 20.5097 60.3538 20.1766 60.0953 19.9247C59.8367 19.6728 59.5003 19.5469 59.086 19.5469C58.8043 19.5469 58.5441 19.6214 58.3055 19.7706C58.0702 19.9164 57.8796 20.1203 57.7338 20.3821C57.5912 20.6439 57.52 20.9472 57.52 21.2919V26H56.0335ZM68.4065 28.8636V18.3636H69.8582V19.6016H69.9825C70.0687 19.4425 70.193 19.2585 70.3554 19.0497C70.5178 18.8409 70.7432 18.6586 71.0315 18.5028C71.3199 18.3438 71.701 18.2642 72.175 18.2642C72.7915 18.2642 73.3416 18.42 73.8256 18.7315C74.3095 19.0431 74.689 19.4922 74.964 20.0788C75.2425 20.6655 75.3817 21.3714 75.3817 22.1967C75.3817 23.022 75.2441 23.7296 74.969 24.3196C74.6939 24.9062 74.3161 25.3587 73.8355 25.6768C73.3549 25.9917 72.8064 26.1491 72.1899 26.1491C71.7259 26.1491 71.3464 26.0713 71.0514 25.9155C70.7597 25.7597 70.531 25.5774 70.3653 25.3686C70.1996 25.1598 70.072 24.9742 69.9825 24.8118H69.893V28.8636H68.4065ZM69.8632 22.1818C69.8632 22.7187 69.9411 23.1894 70.0969 23.5938C70.2526 23.9981 70.478 24.3146 70.773 24.5433C71.068 24.7687 71.4292 24.8814 71.8568 24.8814C72.3009 24.8814 72.6721 24.7637 72.9704 24.5284C73.2687 24.2898 73.4941 23.9666 73.6466 23.5589C73.8023 23.1513 73.8802 22.6922 73.8802 22.1818C73.8802 21.678 73.804 21.2256 73.6515 20.8246C73.5024 20.4235 73.277 20.107 72.9754 19.875C72.6771 19.643 72.3042 19.527 71.8568 19.527C71.4259 19.527 71.0613 19.638 70.7631 19.8601C70.4681 20.0821 70.2443 20.392 70.0919 20.7898C69.9394 21.1875 69.8632 21.6515 69.8632 22.1818ZM77.0471 26V18.3636H78.4839V19.5767H78.5635C78.7027 19.1657 78.9479 18.8426 79.2993 18.6072C79.6539 18.3686 80.055 18.2493 80.5024 18.2493C80.5952 18.2493 80.7046 18.2526 80.8305 18.2592C80.9598 18.2659 81.0609 18.2741 81.1338 18.2841V19.706C81.0741 19.6894 80.9681 19.6712 80.8156 19.6513C80.6631 19.6281 80.5107 19.6165 80.3582 19.6165C80.0069 19.6165 79.6937 19.6911 79.4186 19.8402C79.1468 19.986 78.9314 20.1899 78.7723 20.4517C78.6132 20.7102 78.5336 21.0052 78.5336 21.3366V26H77.0471ZM84.5741 26.169C84.0902 26.169 83.6527 26.0795 83.2616 25.9006C82.8705 25.7183 82.5606 25.4548 82.3319 25.1101C82.1066 24.7654 81.9939 24.3428 81.9939 23.8423C81.9939 23.4115 82.0767 23.0568 82.2425 22.7784C82.4082 22.5 82.6319 22.2796 82.9136 22.1172C83.1953 21.9548 83.5102 21.8321 83.8582 21.7493C84.2062 21.6664 84.5609 21.6035 84.9221 21.5604C85.3795 21.5073 85.7507 21.4643 86.0358 21.4311C86.3208 21.3946 86.528 21.3366 86.6572 21.2571C86.7865 21.1776 86.8511 21.0483 86.8511 20.8693V20.8345C86.8511 20.4003 86.7285 20.0639 86.4832 19.8253C86.2413 19.5866 85.88 19.4673 85.3994 19.4673C84.8989 19.4673 84.5045 19.5784 84.2162 19.8004C83.9311 20.0192 83.7339 20.2628 83.6246 20.5312L82.2275 20.2131C82.3933 19.7491 82.6352 19.3745 82.9534 19.0895C83.2749 18.8011 83.6444 18.5923 84.0621 18.4631C84.4797 18.3305 84.9188 18.2642 85.3795 18.2642C85.6845 18.2642 86.0076 18.3007 86.349 18.3736C86.6937 18.4432 87.0152 18.5724 87.3135 18.7614C87.6151 18.9503 87.862 19.2204 88.0542 19.5717C88.2465 19.9197 88.3426 20.3722 88.3426 20.929V26H86.8909V24.956H86.8312C86.7351 25.1482 86.5909 25.3371 86.3987 25.5227C86.2065 25.7083 85.9595 25.8625 85.6579 25.9851C85.3563 26.1077 84.9951 26.169 84.5741 26.169ZM84.8973 24.9759C85.3083 24.9759 85.6596 24.8946 85.9513 24.7322C86.2462 24.5698 86.47 24.3577 86.6224 24.0959C86.7782 23.8307 86.8561 23.5473 86.8561 23.2457V22.2614C86.8031 22.3144 86.7003 22.3641 86.5479 22.4105C86.3987 22.4536 86.228 22.4917 86.0358 22.5249C85.8435 22.5547 85.6563 22.5829 85.474 22.6094C85.2917 22.6326 85.1392 22.6525 85.0166 22.669C84.7282 22.7055 84.4648 22.7668 84.2261 22.853C83.9908 22.9392 83.8019 23.0634 83.6594 23.2259C83.5202 23.3849 83.4506 23.5971 83.4506 23.8622C83.4506 24.2301 83.5864 24.5085 83.8582 24.6974C84.13 24.883 84.4764 24.9759 84.8973 24.9759ZM90.3225 26V18.3636H91.7593V19.5767H91.8389C91.9781 19.1657 92.2233 18.8426 92.5747 18.6072C92.9293 18.3686 93.3303 18.2493 93.7778 18.2493C93.8706 18.2493 93.98 18.2526 94.1059 18.2592C94.2352 18.2659 94.3363 18.2741 94.4092 18.2841V19.706C94.3495 19.6894 94.2435 19.6712 94.091 19.6513C93.9385 19.6281 93.7861 19.6165 93.6336 19.6165C93.2823 19.6165 92.9691 19.6911 92.694 19.8402C92.4222 19.986 92.2068 20.1899 92.0477 20.4517C91.8886 20.7102 91.809 21.0052 91.809 21.3366V26H90.3225Z" fill="white"/>
</svg>
