<svg width="74" height="74" viewBox="0 0 74 74" fill="none" xmlns="http://www.w3.org/2000/svg">
<path d="M36.8444 73.4739C27.1263 73.4739 17.8132 69.6116 10.9452 62.7435C4.07714 55.8755 0.214844 46.5624 0.214844 36.8444C0.214844 27.1263 4.07714 17.8132 10.9452 10.9452C17.8132 4.07714 27.1263 0.214844 36.8444 0.214844C46.5624 0.214844 55.8755 4.07714 62.7435 10.9452C69.6116 17.8132 73.4739 27.1263 73.4739 36.8444C73.4583 46.5468 69.596 55.8599 62.728 62.728C55.8599 69.596 46.5468 73.4583 36.8444 73.4739ZM36.8444 3.70337C28.0607 3.70337 19.6198 7.19189 13.4058 13.4058C7.19189 19.6198 3.70337 28.0452 3.70337 36.8444C3.70337 45.6435 7.19189 54.0689 13.4058 60.2829C19.6198 66.4968 28.0452 69.9853 36.8444 69.9853C45.6435 69.9853 54.0689 66.4968 60.2829 60.2829C66.4968 54.0689 69.9853 45.6435 69.9853 36.8444C69.9698 28.0607 66.4657 19.6353 60.2673 13.4214C54.0534 7.22304 45.628 3.71894 36.8444 3.70337Z" fill="white"/>
<rect x="26" y="23" width="7" height="28" rx="2" fill="white"/>
<rect x="40" y="23" width="7" height="28" rx="2" fill="white"/>
</svg>
