<svg width="74" height="74" viewBox="0 0 74 74" fill="none" xmlns="http://www.w3.org/2000/svg">
<path d="M36.8444 73.4739C27.1263 73.4739 17.8132 69.6116 10.9452 62.7435C4.07714 55.8755 0.214844 46.5624 0.214844 36.8444C0.214844 27.1263 4.07714 17.8132 10.9452 10.9452C17.8132 4.07714 27.1263 0.214844 36.8444 0.214844C46.5624 0.214844 55.8755 4.07714 62.7435 10.9452C69.6116 17.8132 73.4739 27.1263 73.4739 36.8444C73.4583 46.5468 69.596 55.8599 62.728 62.728C55.8599 69.596 46.5468 73.4583 36.8444 73.4739ZM36.8444 3.70337C28.0607 3.70337 19.6198 7.19189 13.4058 13.4058C7.19189 19.6198 3.70337 28.0452 3.70337 36.8444C3.70337 45.6435 7.19189 54.0689 13.4058 60.2829C19.6198 66.4968 28.0452 69.9853 36.8444 69.9853C45.6435 69.9853 54.0689 66.4968 60.2829 60.2829C66.4968 54.0689 69.9853 45.6435 69.9853 36.8444C69.9698 28.0607 66.4657 19.6353 60.2673 13.4214C54.0534 7.22304 45.628 3.71894 36.8444 3.70337Z" fill="white"/>
<path d="M50.2222 34.5712L32.6394 24.4171C32.1099 24.1056 31.487 23.9966 30.8796 24.1056C30.2722 24.2146 29.7271 24.5261 29.3222 25.0089C28.9329 25.4761 28.7148 26.0835 28.7148 26.6908V47.0146C28.7148 47.6375 28.9329 48.2293 29.3222 48.6966C29.7116 49.1638 30.2722 49.4908 30.8796 49.5998C31.487 49.7089 32.1099 49.5998 32.6394 49.2884L50.2378 39.1343C50.7673 38.8228 51.1878 38.34 51.3902 37.7638C51.6083 37.1875 51.6083 36.549 51.3902 35.9728C51.1566 35.3654 50.7517 34.8826 50.2222 34.5712Z" fill="white"/>
</svg>
