<svg width="259" height="306" viewBox="0 0 259 306" fill="none" xmlns="http://www.w3.org/2000/svg">
<path d="M6.28878 73.6309C1.34323 69.2959 0 63.6177 0 58.6721C0 55.253 1.03795 49.2695 5.92244 44.8124C9.5858 41.4543 14.4092 39.4395 21.9191 39.4395C25.033 39.4395 26.9257 39.6226 29.2459 39.9279C31.1997 40.1721 32.7871 40.6606 34.3135 40.7827C34.863 40.8437 35.0462 41.088 35.0462 41.3932C35.0462 41.8206 34.9241 42.4312 34.802 44.2018C34.6799 45.8503 34.7409 48.6589 34.6799 49.6969C34.6188 50.4295 34.5577 50.8569 34.0693 50.8569C33.6419 50.8569 33.5808 50.4295 33.5808 49.7579C33.5198 48.1705 32.8482 46.3998 31.627 45.1177C29.9785 43.347 26.0099 42.0038 21.3696 42.0038C16.9736 42.0038 14.0429 43.1028 11.8449 45.1177C8.12046 48.5368 7.20462 53.2992 7.20462 58.2447C7.20462 70.3338 16.363 76.2563 23.1403 76.2563C27.6584 76.2563 30.4059 75.7678 32.4208 73.4477C33.2756 72.4708 33.9472 71.0054 34.1303 70.0896C34.2525 69.2959 34.3746 69.0516 34.802 69.0516C35.1683 69.0516 35.2294 69.418 35.2294 69.7843C35.2294 70.3949 34.6188 74.7909 34.1303 76.5005C33.8861 77.3553 33.703 77.5995 32.7871 77.9658C30.7723 78.7596 26.9257 79.1259 23.6898 79.1259C16.7294 79.1259 10.929 77.5995 6.28878 73.6309Z" fill="#E6E6E6"/>
<path d="M51.4705 54.8279C51.4705 47.1348 51.4705 45.7305 51.3484 44.082C51.2263 42.3724 50.8599 41.5787 49.1504 41.2124C48.723 41.0903 47.8682 41.0903 47.1966 41.0903C46.6471 41.0903 46.3418 40.9682 46.3418 40.6629C46.3418 40.3576 46.7081 40.2355 47.4408 40.2355C48.784 40.2355 50.2494 40.2965 51.5316 40.2965C52.8748 40.3576 54.0349 40.4186 54.7065 40.4186C56.355 40.4186 66.4292 40.4186 67.3451 40.3576C68.322 40.2355 69.1157 40.1744 69.5431 40.0523C69.7873 39.9913 70.0926 39.8691 70.3368 39.8691C70.5811 39.8691 70.6421 40.0523 70.6421 40.2965C70.6421 40.6629 70.3979 41.2734 70.2147 43.5936C70.1537 44.082 70.0926 46.3411 69.9705 46.9516C69.9094 47.1959 69.8484 47.5012 69.482 47.5012C69.1157 47.5012 69.0547 47.2569 69.0547 46.7685C69.0547 46.4021 68.9936 45.5474 68.7494 44.9368C68.383 44.021 67.8946 43.4104 65.3302 43.1051C64.4755 42.983 59.1636 42.9219 58.1256 42.9219C57.8814 42.9219 57.7593 43.0441 57.7593 43.4104V56.2322C57.7593 56.5985 57.8203 56.7817 58.1256 56.7817C59.2246 56.7817 65.086 56.7817 66.2461 56.6596C67.4672 56.5374 68.1999 56.4153 68.6883 55.9269C69.0547 55.4995 69.2378 55.2553 69.482 55.2553C69.6652 55.2553 69.8484 55.3774 69.8484 55.6827C69.8484 55.9879 69.6652 56.7817 69.421 59.4071C69.3599 60.445 69.2378 62.4599 69.2378 62.8262C69.2378 63.2536 69.2378 63.8031 68.8104 63.8031C68.4441 63.8031 68.383 63.62 68.383 63.3757C68.322 62.8873 68.322 62.2157 68.1999 61.544C67.9557 60.5061 67.223 59.7734 65.3913 59.5903C64.4144 59.4681 59.4078 59.4681 58.1867 59.4681C57.9425 59.4681 57.8814 59.6513 57.8814 59.9566V63.9863C57.8814 65.6959 57.8203 70.3972 57.8814 71.8625C58.0035 75.3427 58.7972 76.1365 63.987 76.1365C65.3302 76.1365 67.4061 76.1365 68.7494 75.5259C70.0926 74.9153 70.7032 73.8774 71.0084 71.8015C71.1306 71.252 71.1916 71.0688 71.558 71.0688C71.9854 71.0688 71.9853 71.4962 71.9853 71.9846C71.9853 73.1447 71.558 76.6249 71.3137 77.6018C70.9474 78.945 70.52 78.945 68.5662 78.945C64.7807 78.945 61.9722 78.8229 59.7741 78.8229C57.5761 78.7008 56.0497 78.7008 54.5233 78.7008C53.9738 78.7008 52.8748 78.7008 51.6537 78.7619C50.4936 78.7619 49.1504 78.884 48.1735 78.884C47.5019 78.884 47.1355 78.7619 47.1355 78.3955C47.1355 78.1513 47.3187 77.9681 47.9293 77.9681C48.6619 77.9681 49.2725 77.846 49.7609 77.785C50.7989 77.6018 51.0431 76.4417 51.2263 74.9764C51.4705 72.8394 51.4705 68.8708 51.4705 64.1695V54.8279V54.8279Z" fill="#E6E6E6"/>
<path d="M95.1864 63.741C95.1864 70.2129 95.1864 73.6931 96.2244 74.6089C97.0792 75.3416 98.4224 75.708 102.33 75.708C105.016 75.708 106.97 75.6469 108.252 74.3037C108.863 73.6321 109.474 72.2278 109.596 71.2509C109.657 70.8235 109.718 70.5182 110.145 70.5182C110.511 70.5182 110.573 70.7624 110.573 71.373C110.573 71.9225 110.206 75.708 109.84 77.1733C109.535 78.2723 109.29 78.5165 106.665 78.5165C103.002 78.5165 100.376 78.3944 98.1171 78.3944C95.858 78.2723 94.0264 78.2723 91.9504 78.2723C91.4009 78.2723 90.3019 78.2723 89.0808 78.3334C87.9207 78.3334 86.5775 78.4555 85.6006 78.4555C84.929 78.4555 84.5627 78.3334 84.5627 77.967C84.5627 77.7228 84.7458 77.5396 85.3564 77.5396C86.0891 77.5396 86.6996 77.4175 87.1881 77.3565C88.226 77.1733 88.4703 76.0132 88.6534 74.5479C88.8976 72.4109 88.8976 68.4423 88.8976 63.741V54.8268C88.8976 47.1337 88.8976 45.7294 88.7755 44.0809C88.6534 42.3713 88.2871 41.5776 86.5775 41.2113C86.1501 41.0892 85.5396 41.0892 84.929 41.0892C84.3795 41.0892 84.0742 40.9671 84.0742 40.6618C84.0742 40.3565 84.4406 40.2344 85.1732 40.2344C87.5544 40.2344 90.7293 40.3565 92.1336 40.3565C93.3547 40.3565 97.0792 40.2344 99.033 40.2344C99.7656 40.2344 100.071 40.3565 100.071 40.6618C100.071 40.9671 99.7656 41.0892 99.1551 41.0892C98.6056 41.0892 97.8118 41.1502 97.2013 41.2113C95.858 41.4555 95.4306 42.3103 95.3085 44.0809C95.1864 45.7294 95.1864 47.1337 95.1864 54.8268V63.741V63.741Z" fill="#E6E6E6"/>
<path d="M124.921 54.8279C124.921 47.1348 124.921 45.7305 124.799 44.082C124.676 42.3724 124.31 41.5787 122.601 41.2124C122.173 41.0903 121.318 41.0903 120.647 41.0903C120.097 41.0903 119.792 40.9682 119.792 40.6629C119.792 40.3576 120.158 40.2355 120.891 40.2355C122.234 40.2355 123.7 40.2965 124.982 40.2965C126.325 40.3576 127.485 40.4186 128.157 40.4186C129.805 40.4186 139.879 40.4186 140.795 40.3576C141.772 40.2355 142.566 40.1744 142.993 40.0523C143.238 39.9913 143.543 39.8691 143.787 39.8691C144.031 39.8691 144.092 40.0523 144.092 40.2965C144.092 40.6629 143.848 41.2734 143.665 43.5936C143.604 44.082 143.543 46.3411 143.421 46.9516C143.36 47.1959 143.299 47.5012 142.932 47.5012C142.566 47.5012 142.505 47.2569 142.505 46.7685C142.505 46.4021 142.444 45.5474 142.2 44.9368C141.833 44.021 141.345 43.4104 138.78 43.1051C137.926 42.983 132.614 42.9219 131.576 42.9219C131.332 42.9219 131.209 43.0441 131.209 43.4104V56.2322C131.209 56.5985 131.271 56.7817 131.576 56.7817C132.675 56.7817 138.536 56.7817 139.696 56.6596C140.917 56.5374 141.65 56.4153 142.139 55.9269C142.505 55.4995 142.688 55.2553 142.932 55.2553C143.115 55.2553 143.299 55.3774 143.299 55.6827C143.299 55.9879 143.115 56.7817 142.871 59.4071C142.81 60.445 142.688 62.4599 142.688 62.8262C142.688 63.2536 142.688 63.8031 142.261 63.8031C141.894 63.8031 141.833 63.62 141.833 63.3757C141.772 62.8873 141.772 62.2157 141.65 61.544C141.406 60.5061 140.673 59.7734 138.841 59.5903C137.865 59.4681 132.858 59.4681 131.637 59.4681C131.393 59.4681 131.332 59.6513 131.332 59.9566V63.9863C131.332 65.6959 131.271 70.3972 131.332 71.8625C131.454 75.3427 132.247 76.1365 137.437 76.1365C138.78 76.1365 140.856 76.1365 142.2 75.5259C143.543 74.9153 144.153 73.8774 144.459 71.8015C144.581 71.252 144.642 71.0688 145.008 71.0688C145.436 71.0688 145.436 71.4962 145.436 71.9846C145.436 73.1447 145.008 76.6249 144.764 77.6018C144.398 78.945 143.97 78.945 142.016 78.945C138.231 78.945 135.422 78.8229 133.224 78.8229C131.026 78.7008 129.5 78.7008 127.974 78.7008C127.424 78.7008 126.325 78.7008 125.104 78.7619C123.944 78.7619 122.601 78.884 121.624 78.884C120.952 78.884 120.586 78.7619 120.586 78.3955C120.586 78.1513 120.769 77.9681 121.379 77.9681C122.112 77.9681 122.723 77.846 123.211 77.785C124.249 77.6018 124.493 76.4417 124.676 74.9764C124.921 72.8394 124.921 68.8708 124.921 64.1695V54.8279V54.8279Z" fill="#E6E6E6"/>
<path d="M159.479 77.8447C158.685 77.4784 158.502 77.2342 158.502 76.1352C158.502 73.3266 158.685 70.3349 158.746 69.4801C158.807 68.7474 158.929 68.1368 159.357 68.1368C159.784 68.1368 159.845 68.5642 159.845 68.9916C159.845 69.6632 160.028 70.7012 160.273 71.556C161.372 75.2804 164.363 76.6847 167.538 76.6847C172.117 76.6847 174.315 73.5708 174.315 70.8843C174.315 68.3811 173.583 66.0609 169.37 62.7639L167.05 60.9322C161.494 56.5972 159.54 53.056 159.54 48.9042C159.54 43.3481 164.18 39.3184 171.263 39.3184C174.56 39.3184 176.697 39.8068 177.979 40.1731C178.406 40.2953 178.711 40.4174 178.711 40.7837C178.711 41.4553 178.528 42.9207 178.528 46.8893C178.528 47.9883 178.406 48.4157 177.979 48.4157C177.613 48.4157 177.49 48.1104 177.49 47.4999C177.49 47.0725 177.246 45.485 176.147 44.1418C175.414 43.1649 173.888 41.6385 170.652 41.6385C166.928 41.6385 164.608 43.8365 164.608 46.8283C164.608 49.1484 165.768 50.919 169.98 54.155L171.385 55.1929C177.49 59.8332 179.688 63.3134 179.688 68.1368C179.688 71.0675 178.589 74.5477 174.926 76.9289C172.423 78.5774 169.553 79.0048 166.867 79.0048C163.997 79.1269 161.677 78.7606 159.479 77.8447Z" fill="#E6E6E6"/>
<path d="M203.927 42.9807L196.356 43.1639C193.426 43.286 192.205 43.5302 191.411 44.6292C190.922 45.3619 190.678 45.9725 190.556 46.3998C190.434 46.8272 190.312 47.0104 190.006 47.0104C189.64 47.0104 189.579 46.7662 189.579 46.2167C189.579 45.4229 190.556 40.7827 190.617 40.4163C190.739 39.7447 190.922 39.4395 191.228 39.4395C191.655 39.4395 192.143 39.9279 193.426 40.05C194.891 40.1721 196.845 40.2942 198.493 40.2942H218.52C220.168 40.2942 221.267 40.1721 222 40.05C222.733 39.9279 223.16 39.8058 223.343 39.8058C223.709 39.8058 223.771 40.1111 223.771 40.8437C223.771 41.8817 223.648 45.4229 223.648 46.7051C223.587 47.1936 223.526 47.4989 223.221 47.4989C222.794 47.4989 222.733 47.2546 222.671 46.4609L222.61 45.9114C222.488 44.5682 221.145 43.1639 216.627 43.1028L210.216 42.9807V63.7398C210.216 68.38 210.216 72.4097 210.46 74.6078C210.582 76.012 210.888 77.1111 212.414 77.3553C213.147 77.4774 214.246 77.5384 214.978 77.5384C215.528 77.5384 215.772 77.6606 215.772 77.9658C215.772 78.3322 215.345 78.4543 214.795 78.4543C211.437 78.4543 208.262 78.3322 206.858 78.3322C205.698 78.3322 202.523 78.4543 200.447 78.4543C199.775 78.4543 199.409 78.3322 199.409 77.9658C199.409 77.7216 199.592 77.5384 200.203 77.5384C200.936 77.5384 201.546 77.4163 202.035 77.3553C203.072 77.1721 203.378 76.012 203.5 74.5467C203.744 72.4097 203.744 68.4411 203.744 63.7398V42.9807H203.927Z" fill="#E6E6E6"/>
<path d="M238.485 54.8279C238.485 47.1348 238.485 45.7305 238.363 44.082C238.241 42.3724 237.875 41.5787 236.165 41.2124C235.738 41.0903 234.883 41.0903 234.211 41.0903C233.662 41.0903 233.356 40.9682 233.356 40.6629C233.356 40.3576 233.723 40.2355 234.455 40.2355C235.799 40.2355 237.264 40.2965 238.546 40.2965C239.889 40.3576 241.05 40.4186 241.721 40.4186C243.37 40.4186 253.444 40.4186 254.36 40.3576C255.337 40.2355 256.13 40.1744 256.558 40.0523C256.802 39.9913 257.107 39.8691 257.351 39.8691C257.596 39.8691 257.657 40.0523 257.657 40.2965C257.657 40.6629 257.413 41.2734 257.229 43.5936C257.168 44.082 257.107 46.3411 256.985 46.9516C256.924 47.1959 256.863 47.5012 256.497 47.5012C256.13 47.5012 256.069 47.2569 256.069 46.7685C256.069 46.4021 256.008 45.5474 255.764 44.9368C255.398 44.021 254.909 43.4104 252.345 43.1051C251.49 42.983 246.178 42.9219 245.14 42.9219C244.896 42.9219 244.774 43.0441 244.774 43.4104V56.2322C244.774 56.5985 244.835 56.7817 245.14 56.7817C246.239 56.7817 252.101 56.7817 253.261 56.6596C254.482 56.5374 255.215 56.4153 255.703 55.9269C256.069 55.4995 256.252 55.2553 256.497 55.2553C256.68 55.2553 256.863 55.3774 256.863 55.6827C256.863 55.9879 256.68 56.7817 256.436 59.4071C256.375 60.445 256.252 62.4599 256.252 62.8262C256.252 63.2536 256.252 63.8031 255.825 63.8031C255.459 63.8031 255.398 63.62 255.398 63.3757C255.337 62.8873 255.337 62.2157 255.215 61.544C254.97 60.5061 254.238 59.7734 252.406 59.5903C251.429 59.4681 246.422 59.4681 245.201 59.4681C244.957 59.4681 244.896 59.6513 244.896 59.9566V63.9863C244.896 65.6959 244.835 70.3972 244.896 71.8625C245.018 75.3427 245.812 76.1365 251.002 76.1365C252.345 76.1365 254.421 76.1365 255.764 75.5259C257.107 74.9153 257.718 73.8774 258.023 71.8015C258.145 71.252 258.206 71.0688 258.573 71.0688C259 71.0688 259 71.4962 259 71.9846C259 73.1447 258.573 76.6249 258.328 77.6018C257.962 78.945 257.535 78.945 255.581 78.945C251.795 78.945 248.987 78.8229 246.789 78.8229C244.591 78.7008 243.064 78.7008 241.538 78.7008C240.988 78.7008 239.889 78.7008 238.668 78.7619C237.508 78.7619 236.165 78.884 235.188 78.884C234.517 78.884 234.15 78.7619 234.15 78.3955C234.15 78.1513 234.333 77.9681 234.944 77.9681C235.677 77.9681 236.287 77.846 236.776 77.785C237.814 77.6018 238.058 76.4417 238.241 74.9764C238.485 72.8394 238.485 68.8708 238.485 64.1695V54.8279Z" fill="#E6E6E6"/>
<path d="M75.5262 6.96039C75.5262 3.35809 75.5262 2.68647 75.4652 1.89274C75.4041 1.09901 75.2209 0.732674 74.4272 0.549506C74.244 0.48845 73.8167 0.488449 73.5114 0.488449C73.2672 0.488449 73.084 0.427393 73.084 0.244225C73.084 0.061057 73.2671 0 73.6335 0C74.9157 0 76.381 0.0610563 77.0526 0.0610563C77.7853 0.0610563 79.3117 0 80.716 0C83.7077 0 87.6764 8.73414e-07 90.2407 2.68647C91.4619 3.90759 92.5609 5.92244 92.5609 8.73102C92.5609 11.7228 91.2787 14.0429 89.9355 15.3861C88.8364 16.4851 86.3332 18.1947 81.9371 18.1947C81.0823 18.1947 80.1054 18.1337 79.1896 18.0726C78.2738 18.0115 77.48 17.9505 76.8695 17.9505C76.6252 17.9505 76.0757 17.9505 75.5262 17.9505C74.9767 17.9505 74.3662 18.0115 73.8777 18.0115C73.5724 18.0115 73.3893 17.9505 73.3893 17.7673C73.3893 17.6452 73.5114 17.5841 73.7556 17.5841C74.1219 17.5841 74.4272 17.5231 74.6104 17.462C75.0988 17.3399 75.2209 16.8515 75.282 16.1799C75.4041 15.203 75.4041 13.3102 75.4041 11.1122V6.96039H75.5262ZM78.518 9.5858C78.518 12.0891 78.518 13.9208 78.579 14.4092C78.579 15.0198 78.6401 15.9356 78.8233 16.2409C79.1285 16.6683 80.0444 17.2178 81.9371 17.2178C84.3794 17.2178 85.9668 16.7294 87.4322 15.5082C88.9586 14.2261 89.447 12.028 89.447 9.5858C89.447 6.533 88.1648 4.57921 87.1879 3.60231C84.9899 1.5264 82.3035 1.22112 80.4107 1.22112C79.9223 1.22112 79.0675 1.28218 78.8843 1.40429C78.6401 1.5264 78.579 1.64851 78.579 1.89274C78.579 2.68647 78.579 4.76238 78.579 6.65511V9.5858H78.518Z" fill="#E6E6E6"/>
<path d="M96.3469 8.60705C96.3469 5.55425 96.3469 4.94369 96.3469 4.33313C96.2859 3.66151 96.1027 3.41729 95.4311 3.23412C95.2479 3.17306 94.8816 3.17306 94.5763 3.17306C94.3321 3.17306 94.21 3.112 94.21 2.92884C94.21 2.80672 94.3931 2.74567 94.6984 2.74567C95.7974 2.74567 97.1407 2.80672 97.7512 2.80672C98.4228 2.80672 103.063 2.80672 103.49 2.80672C103.857 2.80672 104.223 2.68461 104.345 2.68461C104.467 2.68461 104.589 2.5625 104.651 2.5625C104.773 2.5625 104.773 2.68461 104.773 2.74567C104.773 2.86778 104.651 3.112 104.589 4.02785C104.589 4.27207 104.528 5.12686 104.467 5.37108C104.467 5.49319 104.406 5.67636 104.223 5.67636C104.101 5.67636 104.04 5.55425 104.04 5.43214C104.04 5.31002 104.04 4.94369 103.918 4.69946C103.735 4.33313 103.613 4.02785 102.514 3.96679C102.147 3.90573 99.644 3.84468 99.2166 3.84468C99.0945 3.84468 99.0944 3.90573 99.0944 4.02785V9.03444C99.0944 9.15655 99.0945 9.27867 99.2166 9.27867C99.705 9.27867 102.391 9.27867 102.88 9.21761C103.368 9.15656 103.674 9.0955 103.857 8.91233C104.04 8.79022 104.101 8.66811 104.162 8.66811C104.284 8.66811 104.345 8.79022 104.345 8.91233C104.345 9.03444 104.284 9.33972 104.162 10.3777C104.101 10.8051 104.04 11.5988 104.04 11.7209C104.04 11.9041 104.04 12.1483 103.796 12.1483C103.674 12.1483 103.613 12.0872 103.613 11.9651C103.613 11.7209 103.613 11.4767 103.552 11.2325C103.429 10.8051 103.185 10.4998 102.391 10.4387C102.025 10.3777 99.644 10.3166 99.0944 10.3166C98.9723 10.3166 98.9723 10.4387 98.9723 10.5608V12.2094C98.9723 12.881 98.9723 14.5905 98.9723 15.2011C99.0334 16.6054 99.644 16.9107 101.781 16.9107C102.33 16.9107 103.185 16.9107 103.735 16.6665C104.284 16.4222 104.467 15.9948 104.651 15.14C104.712 14.8958 104.773 14.8348 104.895 14.8348C105.078 14.8348 105.078 15.079 105.078 15.3232C105.078 15.7506 104.895 17.1549 104.773 17.5823C104.651 18.1318 104.467 18.1318 103.674 18.1318C102.086 18.1318 100.865 18.1318 99.8271 18.0707C98.7892 18.0707 97.9954 18.0097 97.3849 18.0097C97.1407 18.0097 96.7133 18.0097 96.2248 18.0097C95.7364 18.0097 95.1869 18.0707 94.7595 18.0707C94.5152 18.0707 94.3321 18.0097 94.3321 17.8265C94.3321 17.7044 94.3931 17.5823 94.6374 17.5823C94.9426 17.5823 95.1869 17.5823 95.37 17.5212C95.7974 17.3991 95.9195 17.0328 95.9806 16.4222C96.1027 15.5674 96.1027 13.98 96.1027 12.0872V8.60705H96.3469Z" fill="#E6E6E6"/>
<path d="M108.924 17.8295C108.619 17.7074 108.497 17.5853 108.497 17.1579C108.497 16.0589 108.619 14.7767 108.619 14.4714C108.619 14.1661 108.741 13.9219 108.863 13.9219C109.047 13.9219 109.108 14.1051 109.108 14.2272C109.108 14.4714 109.169 14.8988 109.291 15.2651C109.718 16.7915 111.306 17.28 112.649 17.28C114.481 17.28 115.58 16.1199 115.58 14.7156C115.58 13.8608 115.335 12.945 113.504 11.846L112.283 11.1133C109.779 9.64798 108.986 8.30474 108.986 6.53412C108.986 4.03082 111.367 2.44336 114.297 2.44336C115.641 2.44336 116.74 2.62653 117.289 2.74864C117.472 2.8097 117.594 2.87075 117.594 2.99287C117.594 3.23709 117.533 3.84765 117.533 5.43511C117.533 5.8625 117.411 6.10672 117.289 6.10672C117.167 6.10672 117.045 5.98461 117.045 5.74039C117.045 5.55722 116.923 4.94666 116.495 4.39715C116.19 4.03082 115.519 3.42026 114.175 3.42026C112.649 3.42026 111.306 4.21399 111.306 5.55722C111.306 6.47306 111.611 7.20573 113.504 8.24369L114.358 8.73213C117.106 10.2585 117.961 11.7849 117.961 13.6166C117.961 15.143 117.411 16.3031 115.885 17.4021C114.908 18.1348 113.504 18.2569 112.405 18.2569C111.122 18.3179 109.84 18.1958 108.924 17.8295Z" fill="#E6E6E6"/>
<path d="M123.272 16.1199C121.196 14.4104 120.646 12.0902 120.646 10.1364C120.646 8.73214 121.074 6.35095 123.089 4.58032C124.615 3.23709 126.63 2.44336 129.744 2.44336C131.026 2.44336 131.82 2.56547 132.797 2.68758C133.59 2.8097 134.262 2.93181 134.873 2.99287C135.117 2.99287 135.178 3.11498 135.178 3.23709C135.178 3.42026 135.117 3.66448 135.056 4.3361C134.995 5.00771 134.995 6.10672 134.995 6.53412C134.995 6.8394 134.873 7.02257 134.689 7.02257C134.506 7.02257 134.445 6.8394 134.445 6.59517C134.445 5.92356 134.14 5.25194 133.651 4.70243C132.919 4.03082 131.514 3.48131 129.622 3.48131C127.79 3.48131 126.63 3.78659 125.653 4.64138C124.127 5.98461 123.699 7.93841 123.699 9.8922C123.699 14.7156 127.424 16.9747 130.232 16.9747C132.064 16.9747 133.102 16.8526 133.957 15.8757C134.323 15.4483 134.628 14.8988 134.689 14.5325C134.75 14.2272 134.812 14.1051 134.934 14.1051C135.056 14.1051 135.178 14.2882 135.178 14.4714C135.178 14.7156 134.934 16.4863 134.75 17.1579C134.628 17.5242 134.567 17.5853 134.201 17.7684C133.346 18.0737 131.759 18.1958 130.415 18.1958C127.607 18.3179 125.165 17.7074 123.272 16.1199Z" fill="#E6E6E6"/>
<path d="M138.842 8.6085C138.842 5.55569 138.842 4.94513 138.842 4.33457C138.78 3.6019 138.597 3.41873 137.926 3.23556C137.743 3.1745 137.376 3.1745 137.132 3.1745C136.888 3.1745 136.766 3.11345 136.766 2.93028C136.766 2.80817 136.888 2.74711 137.193 2.74711C138.292 2.74711 139.696 2.80817 140.307 2.80817C140.856 2.80817 142.261 2.74711 142.993 2.74711C143.299 2.74711 143.421 2.80817 143.421 2.93028C143.421 3.05239 143.299 3.1745 143.115 3.1745C142.871 3.1745 142.749 3.1745 142.505 3.23556C141.955 3.35767 141.772 3.6019 141.772 4.33457C141.711 5.00619 141.711 5.55569 141.711 8.6085V11.4171C141.711 14.3478 142.261 15.5078 143.299 16.3016C144.214 17.0342 145.252 17.0953 145.924 17.0953C146.84 17.0953 147.878 16.8511 148.733 15.9963C149.893 14.8973 149.954 13.1266 149.954 11.0507V8.48638C149.954 5.43358 149.954 4.82302 149.893 4.21246C149.832 3.54084 149.648 3.29662 149.038 3.11345C148.855 3.05239 148.488 3.05239 148.305 3.05239C148.122 3.05239 147.939 2.99134 147.939 2.80817C147.939 2.68606 148.061 2.625 148.366 2.625C149.465 2.625 150.87 2.68606 150.87 2.68606C151.114 2.68606 152.518 2.625 153.312 2.625C153.617 2.625 153.739 2.68606 153.739 2.80817C153.739 2.93028 153.617 3.05239 153.373 3.05239C153.129 3.05239 153.007 3.05239 152.762 3.11345C152.213 3.23556 152.03 3.47979 152.03 4.21246C152.03 4.88408 151.969 5.43358 151.969 8.48638V10.8065C151.969 13.0656 151.724 15.4468 149.954 16.9121C148.488 18.1332 146.901 18.3775 145.497 18.3775C144.398 18.3775 142.261 18.3164 140.734 16.9732C139.635 16.0573 138.842 14.5309 138.842 11.6002V8.6085V8.6085Z" fill="#E6E6E6"/>
<path d="M157.341 8.60943C157.341 5.55663 157.341 4.94607 157.341 4.33551C157.28 3.66389 157.097 3.41966 156.425 3.2365C156.242 3.17544 155.876 3.17544 155.57 3.17544C155.326 3.17544 155.204 3.11438 155.204 2.93122C155.204 2.8091 155.387 2.74805 155.693 2.74805C156.792 2.74805 158.135 2.8091 158.501 2.8091C159.539 2.8091 160.943 2.74805 161.615 2.74805C165.4 2.74805 166.072 4.70184 166.072 5.80085C166.072 7.38831 164.912 8.60943 163.691 9.3421C165.4 9.89161 167.537 11.357 167.537 13.7381C167.537 15.8751 165.828 18.1342 161.981 18.1342C161.737 18.1342 161.004 18.1342 160.333 18.0731C159.6 18.0731 158.867 18.0121 158.562 18.0121C158.318 18.0121 157.891 18.0121 157.402 18.0121C156.914 18.0121 156.364 18.0731 155.937 18.0731C155.693 18.0731 155.509 18.0121 155.509 17.8289C155.509 17.7068 155.57 17.5847 155.815 17.5847C156.12 17.5847 156.364 17.5847 156.547 17.5236C156.975 17.4015 157.097 17.0352 157.158 16.4246C157.28 15.5698 157.28 13.9824 157.28 12.0896V8.60943H157.341ZM160.089 8.97577C160.089 9.15894 160.15 9.15894 160.211 9.21999C160.394 9.28105 160.699 9.28105 161.188 9.28105C161.859 9.28105 162.47 9.21999 162.836 8.91471C163.386 8.48732 163.813 7.75465 163.813 6.77775C163.813 5.43452 163.019 3.72494 161.188 3.72494C160.882 3.72494 160.516 3.72494 160.272 3.786C160.15 3.786 160.089 3.90811 160.089 4.09128V8.97577ZM160.089 14.8982C160.089 16.2414 160.15 16.6078 160.821 16.9131C161.371 17.1573 161.859 17.1573 162.348 17.1573C163.447 17.1573 164.912 16.5467 164.912 14.2876C164.912 13.3718 164.485 11.7843 162.958 10.6853C162.531 10.3801 161.981 10.1358 161.127 10.1358H160.211C160.15 10.1358 160.089 10.1358 160.089 10.2579V14.8982Z" fill="#E6E6E6"/>
<path d="M171.628 8.60943C171.628 5.55663 171.628 4.94607 171.628 4.33551C171.567 3.66389 171.384 3.41966 170.712 3.2365C170.529 3.17544 170.163 3.17544 169.858 3.17544C169.613 3.17544 169.491 3.11438 169.491 2.93122C169.491 2.8091 169.674 2.74805 169.98 2.74805C171.079 2.74805 172.422 2.8091 172.849 2.8091C173.582 2.8091 175.475 2.74805 176.085 2.74805C177.428 2.74805 178.955 2.87016 180.054 3.60283C180.664 4.03023 181.519 5.00712 181.519 6.41141C181.519 7.93781 180.664 9.21999 178.589 10.8685C180.42 13.1276 181.947 14.9593 183.168 16.2414C184.328 17.4015 185.06 17.5236 185.427 17.5847C185.671 17.6457 185.732 17.6457 185.915 17.6457C186.098 17.6457 186.16 17.7678 186.16 17.89C186.16 18.0731 186.037 18.1342 185.732 18.1342H183.717C182.557 18.1342 182.008 18.0121 181.458 17.7068C180.542 17.2794 179.749 16.3025 178.589 14.715C177.734 13.616 176.879 12.2728 176.635 11.9675C176.513 11.8454 176.391 11.8454 176.268 11.8454L174.376 11.7843C174.254 11.7843 174.193 11.8454 174.193 11.9675V12.2728C174.193 14.1655 174.193 15.753 174.315 16.6078C174.376 17.2183 174.498 17.5847 175.108 17.7068C175.414 17.7678 175.841 17.7678 176.146 17.7678C176.329 17.7678 176.391 17.89 176.391 18.0121C176.391 18.1342 176.207 18.2563 175.963 18.2563C174.742 18.2563 173.032 18.1952 172.727 18.1952C172.3 18.1952 171.018 18.2563 170.163 18.2563C169.919 18.2563 169.735 18.1952 169.735 18.0121C169.735 17.89 169.796 17.7678 170.041 17.7678C170.346 17.7678 170.59 17.7678 170.773 17.7068C171.201 17.5847 171.323 17.2183 171.384 16.6078C171.506 15.753 171.506 14.1655 171.506 12.2728V8.60943H171.628ZM174.315 10.1969C174.315 10.4411 174.376 10.5022 174.498 10.5632C174.925 10.6853 175.597 10.7464 176.085 10.7464C176.94 10.7464 177.184 10.6853 177.551 10.4411C178.222 10.0137 178.894 9.09788 178.894 7.44937C178.894 4.57973 176.94 3.84706 175.719 3.84706C175.169 3.84706 174.681 3.84706 174.498 3.90811C174.376 3.96917 174.315 4.03023 174.315 4.21339V10.1969Z" fill="#E6E6E6"/>
<path d="M187.991 8.60705C187.991 5.55425 187.991 4.94369 187.991 4.33313C187.93 3.66151 187.747 3.41729 187.076 3.23412C186.892 3.17306 186.526 3.17306 186.221 3.17306C185.977 3.17306 185.854 3.112 185.854 2.92884C185.854 2.80672 186.038 2.74567 186.343 2.74567C187.442 2.74567 188.785 2.80672 189.396 2.80672C190.067 2.80672 194.708 2.80672 195.135 2.80672C195.501 2.80672 195.868 2.68461 195.99 2.68461C196.112 2.68461 196.234 2.5625 196.295 2.5625C196.417 2.5625 196.417 2.68461 196.417 2.74567C196.417 2.86778 196.295 3.112 196.234 4.02785C196.234 4.27207 196.173 5.12686 196.112 5.37108C196.112 5.49319 196.051 5.67636 195.868 5.67636C195.746 5.67636 195.685 5.55425 195.685 5.43214C195.685 5.31002 195.685 4.94369 195.562 4.69946C195.379 4.33313 195.257 4.02785 194.158 3.96679C193.792 3.90573 191.288 3.84468 190.861 3.84468C190.739 3.84468 190.739 3.90573 190.739 4.02785V9.03444C190.739 9.15655 190.739 9.27867 190.861 9.27867C191.35 9.27867 194.036 9.27867 194.524 9.21761C195.013 9.15656 195.318 9.0955 195.501 8.91233C195.685 8.79022 195.746 8.66811 195.807 8.66811C195.929 8.66811 195.99 8.79022 195.99 8.91233C195.99 9.03444 195.929 9.33972 195.807 10.3777C195.746 10.8051 195.685 11.5988 195.685 11.7209C195.685 11.9041 195.685 12.1483 195.44 12.1483C195.318 12.1483 195.257 12.0872 195.257 11.9651C195.257 11.7209 195.257 11.4767 195.196 11.2325C195.074 10.8051 194.83 10.4998 194.036 10.4387C193.67 10.3777 191.288 10.3166 190.739 10.3166C190.617 10.3166 190.617 10.4387 190.617 10.5608V12.2094C190.617 12.881 190.617 14.5905 190.617 15.2011C190.678 16.6054 191.288 16.9107 193.425 16.9107C193.975 16.9107 194.83 16.9107 195.379 16.6665C195.929 16.4222 196.112 15.9948 196.295 15.14C196.356 14.8958 196.417 14.8348 196.539 14.8348C196.722 14.8348 196.722 15.079 196.722 15.3232C196.722 15.7506 196.539 17.1549 196.417 17.5823C196.295 18.1318 196.112 18.1318 195.318 18.1318C193.731 18.1318 192.51 18.1318 191.472 18.0707C190.434 18.0707 189.64 18.0097 189.029 18.0097C188.785 18.0097 188.358 18.0097 187.869 18.0097C187.381 18.0097 186.831 18.0707 186.404 18.0707C186.16 18.0707 185.977 18.0097 185.977 17.8265C185.977 17.7044 186.038 17.5823 186.282 17.5823C186.587 17.5823 186.831 17.5823 187.015 17.5212C187.442 17.3991 187.564 17.0328 187.625 16.4222C187.747 15.5674 187.747 13.98 187.747 12.0872V8.60705H187.991Z" fill="#E6E6E6"/>
<path d="M129.205 194.176H127.759C110.756 194.176 85.0439 201.008 85.0439 211.317V240.557C85.0439 248.68 96.5059 253 104.767 253C105.163 253 105.541 252.845 105.834 252.552C106.109 252.277 106.281 251.881 106.281 251.485V230.472C113.458 228.131 120.961 226.944 128.499 226.944C136.037 227.013 143.524 228.2 150.718 230.472V251.485C150.718 251.881 150.873 252.26 151.165 252.552C151.44 252.828 151.836 253 152.232 253C160.493 253 171.955 248.68 171.955 240.557V211.317C171.938 201.008 146.226 194.176 129.205 194.176ZM103.252 249.936C96.4542 249.472 88.0557 245.995 88.0557 240.557V217.857C88.2794 218.081 88.5032 218.304 88.7441 218.528C88.7957 218.58 88.8646 218.631 88.9162 218.666C89.2088 218.924 89.5014 219.165 89.8111 219.406C89.8456 219.44 89.8972 219.475 89.9316 219.509C90.2758 219.767 90.6372 220.008 91.0158 220.232C91.1019 220.283 91.1879 220.335 91.274 220.387C91.6526 220.61 92.0485 220.834 92.4615 221.058C92.5303 221.092 92.582 221.11 92.6508 221.144C93.0466 221.333 93.4425 221.523 93.8727 221.712C93.9416 221.746 94.0104 221.781 94.0965 221.798C94.5439 221.987 95.0258 222.159 95.5077 222.314C95.6109 222.349 95.7142 222.383 95.8175 222.418C96.3166 222.572 96.8156 222.727 97.3492 222.865C97.4008 222.882 97.4352 222.882 97.4868 222.899C97.9859 223.02 98.5022 223.14 99.0357 223.226C99.139 223.244 99.2423 223.261 99.3455 223.278C99.8963 223.381 100.464 223.45 101.049 223.519C101.17 223.536 101.29 223.536 101.411 223.553C102.013 223.622 102.633 223.674 103.269 223.691L103.252 249.936ZM128.482 223.949C120.944 223.966 113.458 225.085 106.264 227.305V222.263C106.264 221.867 106.109 221.488 105.817 221.196C105.541 220.92 105.145 220.748 104.749 220.748C96.5747 220.748 91.2568 217.668 89.1227 214.449C88.4688 213.537 88.0901 212.436 88.0385 211.3C88.0385 204.158 110.773 197.17 127.759 197.17H129.205C146.174 197.17 168.926 204.158 168.926 211.3C168.926 215.258 163.126 220.731 152.215 220.731C151.389 220.731 150.7 221.402 150.7 222.245V227.288C143.489 225.154 136.02 224.018 128.482 223.949ZM168.926 240.557C168.926 245.995 160.51 249.472 153.729 249.936V223.743C154.366 223.708 154.969 223.657 155.588 223.605C155.709 223.588 155.829 223.588 155.95 223.571C156.535 223.502 157.085 223.416 157.653 223.33C157.757 223.312 157.86 223.295 157.963 223.278C158.497 223.175 159.013 223.072 159.512 222.951C159.564 222.934 159.615 222.934 159.65 222.917C160.183 222.779 160.682 222.641 161.181 222.469C161.285 222.435 161.388 222.4 161.508 222.366C161.99 222.211 162.455 222.039 162.902 221.85C162.971 221.815 163.057 221.781 163.126 221.746C163.539 221.574 163.952 221.385 164.331 221.196C164.4 221.161 164.451 221.127 164.52 221.11C164.933 220.903 165.329 220.679 165.708 220.438C165.794 220.387 165.88 220.335 165.966 220.283C166.344 220.043 166.706 219.802 167.05 219.561C167.102 219.526 167.136 219.492 167.188 219.457C167.497 219.216 167.807 218.976 168.083 218.717C168.134 218.666 168.203 218.614 168.255 218.58C168.496 218.356 168.737 218.149 168.943 217.908L168.926 240.557Z" fill="#E6E6E6"/>
<path d="M111.651 182.352C111.186 182.352 110.79 182.008 110.722 181.544C110.653 181.027 110.997 180.545 111.531 180.476C112.615 180.322 113.252 180.253 113.269 180.253C113.785 180.201 114.25 180.58 114.301 181.096C114.353 181.612 113.974 182.077 113.458 182.129C113.458 182.129 112.838 182.197 111.789 182.352C111.737 182.352 111.685 182.352 111.651 182.352Z" fill="#E6E6E6"/>
<path d="M86.5579 191.181C86.2653 191.181 85.99 191.044 85.8007 190.803C85.4909 190.39 85.5597 189.787 85.99 189.477C86.7816 188.875 87.6766 188.29 88.6059 187.722C89.0534 187.447 89.6385 187.601 89.8967 188.049C90.172 188.496 90.0171 189.082 89.5697 189.34C88.692 189.856 87.8659 190.407 87.1258 190.975C86.9709 191.13 86.7644 191.181 86.5579 191.181ZM92.3405 187.791C91.9791 187.791 91.6521 187.584 91.48 187.24C91.2563 186.758 91.4628 186.207 91.9275 185.984C92.8224 185.553 93.7861 185.14 94.7843 184.762C95.2662 184.573 95.8169 184.813 96.0062 185.295C96.1956 185.777 95.9546 186.328 95.4727 186.517C94.509 186.896 93.5968 187.292 92.7191 187.688C92.5986 187.756 92.461 187.791 92.3405 187.791ZM98.5878 185.347C98.1919 185.347 97.8133 185.089 97.6928 184.693C97.5379 184.194 97.8133 183.66 98.2952 183.505C99.2417 183.196 100.24 182.903 101.255 182.628C101.754 182.49 102.288 182.783 102.426 183.282C102.563 183.781 102.271 184.314 101.772 184.452C100.791 184.727 99.8097 185.02 98.8803 185.313C98.7771 185.33 98.6738 185.347 98.5878 185.347ZM105.059 183.592C104.628 183.592 104.233 183.299 104.129 182.852C104.009 182.335 104.336 181.836 104.835 181.716C105.833 181.492 106.849 181.285 107.847 181.079C108.363 180.976 108.862 181.32 108.948 181.836C109.051 182.352 108.707 182.852 108.191 182.938C107.21 183.127 106.212 183.333 105.231 183.557C105.196 183.574 105.128 183.592 105.059 183.592Z" fill="#E6E6E6"/>
<path d="M82.7547 194.951C82.5654 194.951 82.3589 194.899 82.204 194.761C81.791 194.452 81.6877 193.866 81.9975 193.436C82.3417 192.954 82.7375 192.49 83.1506 192.025C83.512 191.646 84.0971 191.612 84.493 191.973C84.8888 192.335 84.906 192.92 84.5446 193.316C84.166 193.729 83.8218 194.142 83.512 194.572C83.3399 194.813 83.0473 194.951 82.7547 194.951Z" fill="#E6E6E6"/>
<path d="M88.1938 195.879H81.9466C81.4303 195.879 81 195.449 81 194.933V188.995C81 188.479 81.4303 188.049 81.9466 188.049C82.4629 188.049 82.8931 188.479 82.8931 188.995V193.986H88.1766C88.6929 193.986 89.1232 194.417 89.1232 194.933C89.1232 195.449 88.7101 195.879 88.1938 195.879Z" fill="#E6E6E6"/>
<path d="M145.073 182.352C145.021 182.352 144.987 182.352 144.935 182.335C143.886 182.18 143.266 182.111 143.266 182.111C142.75 182.059 142.371 181.595 142.423 181.078C142.474 180.562 142.939 180.184 143.455 180.235C143.49 180.235 144.109 180.304 145.194 180.459C145.71 180.528 146.071 181.01 146.002 181.526C145.951 182.025 145.538 182.352 145.073 182.352Z" fill="#E6E6E6"/>
<path d="M170.165 191.181C169.958 191.181 169.769 191.112 169.597 190.992C168.857 190.424 168.031 189.873 167.153 189.357C166.706 189.081 166.551 188.513 166.826 188.066C167.102 187.618 167.67 187.463 168.117 187.739C169.064 188.307 169.941 188.892 170.733 189.494C171.146 189.804 171.232 190.406 170.922 190.819C170.733 191.06 170.44 191.181 170.165 191.181ZM164.382 187.79C164.245 187.79 164.107 187.756 163.987 187.704C163.126 187.291 162.197 186.896 161.233 186.534C160.751 186.345 160.51 185.794 160.699 185.312C160.889 184.83 161.44 184.589 161.921 184.779C162.92 185.175 163.883 185.588 164.778 186.001C165.26 186.224 165.449 186.792 165.226 187.257C165.088 187.584 164.744 187.79 164.382 187.79ZM158.135 185.347C158.032 185.347 157.946 185.329 157.843 185.295C156.913 185.002 155.949 184.71 154.951 184.434C154.452 184.297 154.16 183.781 154.297 183.264C154.435 182.765 154.951 182.473 155.468 182.61C156.483 182.886 157.481 183.178 158.428 183.488C158.927 183.643 159.202 184.176 159.03 184.675C158.91 185.088 158.548 185.347 158.135 185.347ZM151.664 183.591C151.595 183.591 151.526 183.591 151.458 183.574C150.494 183.35 149.496 183.144 148.498 182.954C147.981 182.851 147.654 182.369 147.74 181.853C147.826 181.337 148.343 181.01 148.842 181.096C149.857 181.285 150.873 181.509 151.853 181.733C152.37 181.853 152.68 182.352 152.559 182.868C152.49 183.299 152.094 183.591 151.664 183.591Z" fill="#E6E6E6"/>
<path d="M173.969 194.949C173.677 194.949 173.384 194.811 173.212 194.57C172.902 194.14 172.558 193.727 172.179 193.314C171.818 192.935 171.852 192.333 172.231 191.971C172.61 191.61 173.212 191.644 173.573 192.023C173.986 192.488 174.382 192.952 174.726 193.434C175.036 193.847 174.95 194.45 174.52 194.759C174.348 194.88 174.159 194.949 173.969 194.949Z" fill="#E6E6E6"/>
<path d="M174.778 195.879H168.548C168.032 195.879 167.602 195.449 167.602 194.933C167.602 194.417 168.032 193.986 168.548 193.986H173.832V188.995C173.832 188.479 174.262 188.049 174.778 188.049C175.294 188.049 175.725 188.479 175.725 188.995V194.933C175.725 195.449 175.294 195.879 174.778 195.879Z" fill="#E6E6E6"/>
<path d="M128.482 183.85C126.589 183.85 125.058 182.318 125.058 180.425C125.058 178.532 126.589 177 128.482 177C130.376 177 131.907 178.532 131.907 180.425C131.907 182.318 130.376 183.85 128.482 183.85ZM128.482 178.893C127.639 178.893 126.951 179.582 126.951 180.425C126.951 181.268 127.639 181.957 128.482 181.957C129.326 181.957 130.014 181.268 130.014 180.425C130.014 179.582 129.326 178.893 128.482 178.893Z" fill="#E6E6E6"/>
<path d="M96.5063 286V275.818H102.89V277.141H98.0425V280.243H102.557V281.56H98.0425V284.678H102.949V286H96.5063ZM105.996 278.364L107.681 281.337L109.381 278.364H111.007L108.626 282.182L111.027 286H109.401L107.681 283.146L105.966 286H104.335L106.712 282.182L104.365 278.364H105.996ZM112.533 288.864V278.364H113.985V279.602H114.109C114.196 279.442 114.32 279.259 114.482 279.05C114.645 278.841 114.87 278.659 115.158 278.503C115.447 278.344 115.828 278.264 116.302 278.264C116.918 278.264 117.469 278.42 117.953 278.732C118.436 279.043 118.816 279.492 119.091 280.079C119.369 280.665 119.509 281.371 119.509 282.197C119.509 283.022 119.371 283.73 119.096 284.32C118.821 284.906 118.443 285.359 117.962 285.677C117.482 285.992 116.933 286.149 116.317 286.149C115.853 286.149 115.473 286.071 115.178 285.915C114.887 285.76 114.658 285.577 114.492 285.369C114.327 285.16 114.199 284.974 114.109 284.812H114.02V288.864H112.533ZM113.99 282.182C113.99 282.719 114.068 283.189 114.224 283.594C114.38 283.998 114.605 284.315 114.9 284.543C115.195 284.769 115.556 284.881 115.984 284.881C116.428 284.881 116.799 284.764 117.097 284.528C117.396 284.29 117.621 283.967 117.774 283.559C117.929 283.151 118.007 282.692 118.007 282.182C118.007 281.678 117.931 281.226 117.778 280.825C117.629 280.424 117.404 280.107 117.102 279.875C116.804 279.643 116.431 279.527 115.984 279.527C115.553 279.527 115.188 279.638 114.89 279.86C114.595 280.082 114.371 280.392 114.219 280.79C114.066 281.187 113.99 281.652 113.99 282.182ZM122.661 275.818V286H121.174V275.818H122.661ZM127.877 286.154C127.161 286.154 126.536 285.99 126.003 285.662C125.469 285.334 125.055 284.875 124.76 284.285C124.465 283.695 124.317 283.005 124.317 282.217C124.317 281.424 124.465 280.732 124.76 280.138C125.055 279.545 125.469 279.085 126.003 278.756C126.536 278.428 127.161 278.264 127.877 278.264C128.593 278.264 129.218 278.428 129.751 278.756C130.285 279.085 130.699 279.545 130.994 280.138C131.289 280.732 131.437 281.424 131.437 282.217C131.437 283.005 131.289 283.695 130.994 284.285C130.699 284.875 130.285 285.334 129.751 285.662C129.218 285.99 128.593 286.154 127.877 286.154ZM127.882 284.906C128.346 284.906 128.73 284.784 129.035 284.538C129.34 284.293 129.566 283.967 129.712 283.559C129.861 283.151 129.935 282.702 129.935 282.212C129.935 281.724 129.861 281.277 129.712 280.869C129.566 280.458 129.34 280.129 129.035 279.88C128.73 279.631 128.346 279.507 127.882 279.507C127.415 279.507 127.027 279.631 126.719 279.88C126.414 280.129 126.187 280.458 126.038 280.869C125.892 281.277 125.819 281.724 125.819 282.212C125.819 282.702 125.892 283.151 126.038 283.559C126.187 283.967 126.414 284.293 126.719 284.538C127.027 284.784 127.415 284.906 127.882 284.906ZM133.096 286V278.364H134.533V279.577H134.612C134.752 279.166 134.997 278.843 135.348 278.607C135.703 278.369 136.104 278.249 136.551 278.249C136.644 278.249 136.753 278.253 136.879 278.259C137.009 278.266 137.11 278.274 137.183 278.284V279.706C137.123 279.689 137.017 279.671 136.864 279.651C136.712 279.628 136.56 279.616 136.407 279.616C136.056 279.616 135.743 279.691 135.467 279.84C135.196 279.986 134.98 280.19 134.821 280.452C134.662 280.71 134.582 281.005 134.582 281.337V286H133.096ZM140.623 286.169C140.139 286.169 139.702 286.08 139.31 285.901C138.919 285.718 138.609 285.455 138.381 285.11C138.155 284.765 138.043 284.343 138.043 283.842C138.043 283.411 138.126 283.057 138.291 282.778C138.457 282.5 138.681 282.28 138.962 282.117C139.244 281.955 139.559 281.832 139.907 281.749C140.255 281.666 140.61 281.603 140.971 281.56C141.428 281.507 141.8 281.464 142.085 281.431C142.37 281.395 142.577 281.337 142.706 281.257C142.835 281.178 142.9 281.048 142.9 280.869V280.835C142.9 280.4 142.777 280.064 142.532 279.825C142.29 279.587 141.929 279.467 141.448 279.467C140.948 279.467 140.553 279.578 140.265 279.8C139.98 280.019 139.783 280.263 139.673 280.531L138.276 280.213C138.442 279.749 138.684 279.375 139.002 279.089C139.324 278.801 139.693 278.592 140.111 278.463C140.528 278.33 140.968 278.264 141.428 278.264C141.733 278.264 142.056 278.301 142.398 278.374C142.743 278.443 143.064 278.572 143.362 278.761C143.664 278.95 143.911 279.22 144.103 279.572C144.295 279.92 144.391 280.372 144.391 280.929V286H142.94V284.956H142.88C142.784 285.148 142.64 285.337 142.448 285.523C142.255 285.708 142.008 285.862 141.707 285.985C141.405 286.108 141.044 286.169 140.623 286.169ZM140.946 284.976C141.357 284.976 141.708 284.895 142 284.732C142.295 284.57 142.519 284.358 142.671 284.096C142.827 283.831 142.905 283.547 142.905 283.246V282.261C142.852 282.314 142.749 282.364 142.597 282.411C142.448 282.454 142.277 282.492 142.085 282.525C141.892 282.555 141.705 282.583 141.523 282.609C141.341 282.633 141.188 282.652 141.065 282.669C140.777 282.705 140.514 282.767 140.275 282.853C140.04 282.939 139.851 283.063 139.708 283.226C139.569 283.385 139.499 283.597 139.499 283.862C139.499 284.23 139.635 284.509 139.907 284.697C140.179 284.883 140.525 284.976 140.946 284.976ZM153.641 278.364V279.557H149.47V278.364H153.641ZM150.589 276.534H152.075V283.758C152.075 284.046 152.118 284.263 152.204 284.409C152.29 284.552 152.401 284.649 152.537 284.702C152.677 284.752 152.827 284.777 152.99 284.777C153.109 284.777 153.214 284.769 153.303 284.752C153.392 284.736 153.462 284.722 153.512 284.712L153.78 285.94C153.694 285.973 153.571 286.007 153.412 286.04C153.253 286.076 153.054 286.096 152.816 286.099C152.425 286.106 152.06 286.036 151.722 285.891C151.384 285.745 151.111 285.519 150.902 285.214C150.693 284.91 150.589 284.527 150.589 284.066V276.534ZM160.123 282.833V278.364H161.614V286H160.153V284.678H160.073C159.897 285.085 159.616 285.425 159.228 285.697C158.843 285.965 158.364 286.099 157.791 286.099C157.301 286.099 156.866 285.992 156.489 285.776C156.114 285.558 155.819 285.234 155.604 284.807C155.391 284.379 155.285 283.851 155.285 283.221V278.364H156.772V283.042C156.772 283.562 156.916 283.977 157.204 284.285C157.493 284.593 157.867 284.747 158.328 284.747C158.606 284.747 158.883 284.678 159.158 284.538C159.437 284.399 159.667 284.189 159.849 283.907C160.035 283.625 160.126 283.267 160.123 282.833ZM107.129 303.154C106.377 303.154 105.729 302.993 105.185 302.672C104.645 302.347 104.228 301.891 103.933 301.305C103.641 300.715 103.495 300.024 103.495 299.232C103.495 298.449 103.641 297.76 103.933 297.163C104.228 296.567 104.639 296.101 105.166 295.766C105.696 295.432 106.316 295.264 107.025 295.264C107.456 295.264 107.873 295.335 108.278 295.478C108.682 295.621 109.045 295.844 109.367 296.149C109.688 296.454 109.942 296.85 110.127 297.337C110.313 297.821 110.406 298.41 110.406 299.102V299.629H104.335V298.516H108.949C108.949 298.125 108.869 297.778 108.71 297.477C108.551 297.172 108.328 296.931 108.039 296.756C107.754 296.58 107.419 296.492 107.035 296.492C106.617 296.492 106.253 296.595 105.941 296.8C105.633 297.003 105.394 297.268 105.225 297.596C105.06 297.921 104.977 298.274 104.977 298.655V299.525C104.977 300.035 105.066 300.469 105.245 300.827C105.427 301.185 105.681 301.459 106.006 301.648C106.331 301.833 106.71 301.926 107.144 301.926C107.426 301.926 107.683 301.886 107.915 301.807C108.147 301.724 108.347 301.601 108.516 301.439C108.685 301.277 108.815 301.076 108.904 300.837L110.311 301.091C110.198 301.505 109.996 301.868 109.705 302.18C109.416 302.488 109.053 302.728 108.616 302.901C108.182 303.07 107.686 303.154 107.129 303.154ZM113.541 298.466V303H112.055V295.364H113.482V296.607H113.576C113.752 296.202 114.027 295.877 114.402 295.632C114.779 295.387 115.255 295.264 115.828 295.264C116.349 295.264 116.804 295.374 117.196 295.592C117.587 295.808 117.89 296.129 118.105 296.557C118.321 296.984 118.429 297.513 118.429 298.143V303H116.942V298.322C116.942 297.768 116.798 297.336 116.509 297.024C116.221 296.709 115.825 296.552 115.321 296.552C114.977 296.552 114.67 296.626 114.402 296.776C114.136 296.925 113.926 297.143 113.77 297.432C113.618 297.717 113.541 298.062 113.541 298.466ZM123.987 295.364V296.557H119.816V295.364H123.987ZM120.934 293.534H122.421V300.758C122.421 301.046 122.464 301.263 122.55 301.409C122.636 301.552 122.747 301.649 122.883 301.702C123.022 301.752 123.173 301.777 123.335 301.777C123.455 301.777 123.559 301.769 123.649 301.752C123.738 301.736 123.808 301.722 123.858 301.712L124.126 302.94C124.04 302.973 123.917 303.007 123.758 303.04C123.599 303.076 123.4 303.096 123.161 303.099C122.77 303.106 122.406 303.036 122.068 302.891C121.73 302.745 121.456 302.519 121.247 302.214C121.039 301.91 120.934 301.527 120.934 301.066V293.534ZM128.766 303.154C128.05 303.154 127.425 302.99 126.891 302.662C126.358 302.334 125.944 301.875 125.649 301.285C125.354 300.695 125.206 300.005 125.206 299.217C125.206 298.424 125.354 297.732 125.649 297.138C125.944 296.545 126.358 296.085 126.891 295.756C127.425 295.428 128.05 295.264 128.766 295.264C129.482 295.264 130.106 295.428 130.64 295.756C131.174 296.085 131.588 296.545 131.883 297.138C132.178 297.732 132.325 298.424 132.325 299.217C132.325 300.005 132.178 300.695 131.883 301.285C131.588 301.875 131.174 302.334 130.64 302.662C130.106 302.99 129.482 303.154 128.766 303.154ZM128.771 301.906C129.235 301.906 129.619 301.784 129.924 301.538C130.229 301.293 130.454 300.967 130.6 300.559C130.749 300.151 130.824 299.702 130.824 299.212C130.824 298.724 130.749 298.277 130.6 297.869C130.454 297.458 130.229 297.129 129.924 296.88C129.619 296.631 129.235 296.507 128.771 296.507C128.303 296.507 127.916 296.631 127.607 296.88C127.302 297.129 127.075 297.458 126.926 297.869C126.78 298.277 126.707 298.724 126.707 299.212C126.707 299.702 126.78 300.151 126.926 300.559C127.075 300.967 127.302 301.293 127.607 301.538C127.916 301.784 128.303 301.906 128.771 301.906ZM133.985 303V295.364H135.421V296.577H135.501C135.64 296.166 135.885 295.843 136.237 295.607C136.591 295.369 136.992 295.249 137.44 295.249C137.533 295.249 137.642 295.253 137.768 295.259C137.897 295.266 137.998 295.274 138.071 295.284V296.706C138.012 296.689 137.906 296.671 137.753 296.651C137.601 296.628 137.448 296.616 137.296 296.616C136.944 296.616 136.631 296.691 136.356 296.84C136.084 296.986 135.869 297.19 135.71 297.452C135.551 297.71 135.471 298.005 135.471 298.337V303H133.985ZM140.844 298.466V303H139.358V295.364H140.785V296.607H140.879C141.055 296.202 141.33 295.877 141.704 295.632C142.082 295.387 142.558 295.264 143.131 295.264C143.651 295.264 144.107 295.374 144.498 295.592C144.889 295.808 145.193 296.129 145.408 296.557C145.624 296.984 145.731 297.513 145.731 298.143V303H144.245V298.322C144.245 297.768 144.101 297.336 143.812 297.024C143.524 296.709 143.128 296.552 142.624 296.552C142.279 296.552 141.973 296.626 141.704 296.776C141.439 296.925 141.229 297.143 141.073 297.432C140.92 297.717 140.844 298.062 140.844 298.466ZM150.941 303.154C150.226 303.154 149.601 302.99 149.067 302.662C148.534 302.334 148.119 301.875 147.824 301.285C147.529 300.695 147.382 300.005 147.382 299.217C147.382 298.424 147.529 297.732 147.824 297.138C148.119 296.545 148.534 296.085 149.067 295.756C149.601 295.428 150.226 295.264 150.941 295.264C151.657 295.264 152.282 295.428 152.816 295.756C153.349 296.085 153.764 296.545 154.059 297.138C154.354 297.732 154.501 298.424 154.501 299.217C154.501 300.005 154.354 300.695 154.059 301.285C153.764 301.875 153.349 302.334 152.816 302.662C152.282 302.99 151.657 303.154 150.941 303.154ZM150.946 301.906C151.41 301.906 151.795 301.784 152.1 301.538C152.405 301.293 152.63 300.967 152.776 300.559C152.925 300.151 153 299.702 153 299.212C153 298.724 152.925 298.277 152.776 297.869C152.63 297.458 152.405 297.129 152.1 296.88C151.795 296.631 151.41 296.507 150.946 296.507C150.479 296.507 150.091 296.631 149.783 296.88C149.478 297.129 149.251 297.458 149.102 297.869C148.956 298.277 148.883 298.724 148.883 299.212C148.883 299.702 148.956 300.151 149.102 300.559C149.251 300.967 149.478 301.293 149.783 301.538C150.091 301.784 150.479 301.906 150.946 301.906Z" fill="#E6E6E6"/>
</svg>
